<svg width="40" height="40" viewBox="0 0 40 40" fill="none" xmlns="http://www.w3.org/2000/svg">
<path d="M4.79932 10.911L6.39931 6.91103L11.5993 5.71103L17.1993 7.71103L21.5993 12.111L28.3992 5.71103L31.1992 5.31104L34.7992 6.91103L36.7992 10.911L36.3992 18.111L33.5992 24.911L26.3993 31.711L19.1993 34.9109L12.3993 32.9109L7.19931 28.111L4.79932 21.711V10.911Z" fill="#EF81AE"/>
<path d="M19.6691 35.2652L19.6553 35.263C19.5913 35.2531 19.5017 35.2369 19.4005 35.2186C19.2093 35.184 18.9764 35.142 18.7953 35.1201C18.5259 35.0876 18.2178 35.0728 17.8879 35.1251L15.7892 34.5194C15.3887 34.2278 14.9393 34.0541 14.6038 33.9244C14.5547 33.9054 14.508 33.8874 14.4642 33.87C12.4772 33.0694 10.7391 31.9305 9.32396 30.3664C8.65644 29.6278 8.03698 28.8599 7.4015 28.0722C7.15347 27.7647 6.903 27.4542 6.64628 27.1413C5.86268 26.1664 5.3035 25.0309 5.00846 23.8157L5.00574 23.8045L5.00566 23.8045C3.76807 19.0093 3.79602 14.2286 4.95669 9.38918L4.95672 9.38907C5.15208 8.57397 5.68086 7.67114 6.45382 6.97223C7.2212 6.27837 8.18365 5.82502 9.23317 5.81543L9.23464 5.81541C10.0568 5.80638 10.8839 5.83706 11.7269 5.87583C14.775 6.02001 17.293 6.92761 19.0805 9.3875L19.0805 9.38751C19.5608 10.0484 20.1515 10.6683 20.7311 11.2767C20.9674 11.5246 21.2019 11.7707 21.4263 12.0168L22.2064 12.8724L22.7307 11.8402C23.5346 10.2577 24.6602 9.10933 25.8775 7.86739C26.1134 7.62671 26.3528 7.38251 26.5939 7.13095C27.7048 5.97277 28.8252 5.45372 29.9728 5.32966C31.1447 5.20298 32.4264 5.47948 33.8576 6.06382L19.6691 35.2652ZM19.6691 35.2652L19.6828 35.2678M19.6691 35.2652L19.6828 35.2678M19.6828 35.2678C20.1537 35.3579 20.6411 35.2834 21.0634 35.0571C22.8103 34.0614 24.5479 33.0487 26.2761 32.0189L26.2782 32.0177M19.6828 35.2678L26.2782 32.0177M26.2782 32.0177C28.2992 30.8219 29.8435 29.1201 31.4893 27.3065C31.7185 27.0538 31.9498 26.7991 32.1845 26.5431L32.1847 26.5429M26.2782 32.0177L32.1847 26.5429M32.1847 26.5429C35.9666 22.4239 37.2327 17.416 37.382 11.876L37.3821 11.8731M32.1847 26.5429L37.3821 11.8731M37.3821 11.8731C37.4229 10.5392 36.9069 9.30072 36.2109 7.98646M37.3821 11.8731L36.2109 7.98646M36.2109 7.98646C35.7335 7.08756 34.9446 6.50773 33.8577 6.06384L36.2109 7.98646Z" stroke="#EF81AE" stroke-width="1.6"/>
</svg>
